<?xml version="1.0" encoding="utf-8"?>
<!-- Generator: Adobe Illustrator 20.1.0, SVG Export Plug-In . SVG Version: 6.00 Build 0)  -->
<svg version="1.1" id="Layer_1" xmlns="http://www.w3.org/2000/svg" xmlns:xlink="http://www.w3.org/1999/xlink" x="0px" y="0px"
	 viewBox="0 0 100 100" style="enable-background:new 0 0 100 100;" xml:space="preserve">
<style type="text/css">
	.st0{fill:#F0F0F0;}
	.st1{fill:#DBDBDB;}
	.st2{fill:none;}
	.st3{fill:#9CCDE2;}
</style>
<path class="st0" d="M28.8,67c-9.7,0-17.6-7.9-17.6-17.6s7.9-17.6,17.6-17.6c3.5-8.3,11.6-14.1,21.2-14.1c12.1,0,22,9.4,22.9,21.3
	l1.8-0.1c7.8,0,14.1,6.3,14.1,14.1S82.5,67,74.7,67H28.8"/>
<path class="st1" d="M-67.7,18.3"/>
<path class="st2" d="M21.3,63.9"/>
<g id="path2497">
	<path class="st3" d="M50,69c0,5.4-4.6,10.1-10,10.1s-10-4.8-10-10.2c0-5.4,8.6-14.9,10-20.1C41.4,54,50,63.6,50,69z"/>
</g>
</svg>

