<?xml version="1.0" encoding="utf-8"?>
<!-- Generator: Adobe Illustrator 20.1.0, SVG Export Plug-In . SVG Version: 6.00 Build 0)  -->
<svg version="1.1" id="Layer_1" xmlns="http://www.w3.org/2000/svg" xmlns:xlink="http://www.w3.org/1999/xlink" x="0px" y="0px"
	 viewBox="0 0 100 100" style="enable-background:new 0 0 100 100;" xml:space="preserve">
<style type="text/css">
	.st0{fill:#F0F0F0;}
	.st1{fill:#BCEDE7;}
</style>
<path class="st0" d="M30.9,72.3c-8.8,0-15.9-7.1-15.9-15.9s7.1-15.9,15.9-15.9C34.1,33,41.4,27.7,50,27.7c10.9,0,19.8,8.5,20.7,19.2
	l1.6-0.1c7,0,12.7,5.7,12.7,12.7s-5.7,12.7-12.7,12.7H30.9"/>
<rect x="28.7" y="65.3" transform="matrix(0.7071 0.7071 -0.7071 0.7071 61.5386 -4.0661)" class="st1" width="14" height="14"/>
<rect x="52.9" y="65.3" transform="matrix(0.7071 0.7071 -0.7071 0.7071 68.6255 -21.1755)" class="st1" width="14" height="14"/>
<rect x="40.7" y="50.5" transform="matrix(0.7071 0.7071 -0.7071 0.7071 54.5819 -16.8606)" class="st1" width="14" height="14"/>
</svg>
